<?xml version="1.0" encoding="iso-8859-1"?>
<!-- Generator: Adobe Illustrator 19.1.0, SVG Export Plug-In . SVG Version: 6.00 Build 0)  -->
<svg version="1.1" id="Capa_1" xmlns="http://www.w3.org/2000/svg" xmlns:xlink="http://www.w3.org/1999/xlink" x="0px" y="0px"
	 viewBox="0 0 66 66" style="enable-background:new 0 0 66 66;" xml:space="preserve">
<g>
	<g id="group-30svg">
		<path id="path-1_23_" style="fill:#FF917B;" d="M15.125,18.445c-3.061-2.583-8.314-1.282-9.42,2.569
			C5.53,21.625,5,22.269,5,22.936v24.96h61v-24.96c0-0.038,0-0.077,0-0.115c0-4.683-5.284-7.041-8.804-3.953
			c-3.005,2.637-8.934,6.144-20.375,6.144C24.756,25.012,18.288,21.112,15.125,18.445z"/>
		<path id="path-2_23_" style="fill:#81BDA4;" d="M5,44.801v3.095h61v-3.095c0-3.189-1.545-5.911-4.733-5.911h-49.63
			C8.45,38.89,5,41.612,5,44.801z"/>
		<path id="path-3_23_" style="fill:#81BDA4;" d="M62,35.697c0-1.552-1.258-2.811-2.809-2.811H12.809
			c-1.551,0-2.809,1.259-2.809,2.811v0.382c0,1.552,1.258,2.811,2.809,2.811h46.382c1.551,0,2.809-1.259,2.809-2.811V35.697z"/>
		<path id="path-4_23_" d="M62.5,46.896h-61c-0.829,0-1.5-0.673-1.5-1.501V20.934c0-0.74,0.214-1.4,0.387-1.931
			c0.044-0.137,0.088-0.271,0.127-0.405c0.858-2.989,3.627-4.997,6.889-4.997c1.728,0,3.393,0.602,4.689,1.696
			c3.361,2.834,9.708,6.213,20.854,6.213c10.691,0,16.511-3.139,19.511-5.772c1.318-1.156,2.92-1.767,4.634-1.767
			c3.396,0,6.909,2.562,6.909,6.849v24.575C64,46.223,63.329,46.896,62.5,46.896z M3,43.893h58V20.82
			c0-2.408-1.988-3.846-3.909-3.846c-0.975,0-1.894,0.352-2.656,1.022c-3.387,2.972-9.865,6.516-21.489,6.516
			c-12.052,0-19.044-3.763-22.787-6.921c-0.969-0.817-2.034-0.988-2.756-0.988c-1.59,0-3.445,0.873-4.007,2.824
			c-0.047,0.166-0.101,0.335-0.156,0.505C3.116,20.311,3,20.668,3,20.934V43.893z"/>
		<path id="path-5_23_" d="M62.5,46.896h-61c-0.829,0-1.5-0.673-1.5-1.501V42.8c0-4.067,3.711-7.913,7.637-7.913h49.631
			c4.158,0,6.732,4.108,6.732,7.913v2.595C64,46.223,63.329,46.896,62.5,46.896z M3,43.893h58V42.8c0-2.362-1.427-4.911-3.732-4.911
			H7.637C5.34,37.889,3,40.368,3,42.8V43.893z"/>
		<path id="path-6_22_" d="M60.5,52.399c-0.829,0-1.5-0.672-1.5-1.501v-5.003c0-0.829,0.671-1.501,1.5-1.501s1.5,0.672,1.5,1.501
			v5.003C62,51.727,61.329,52.399,60.5,52.399z"/>
		<path id="path-7_22_" d="M3.5,52.399c-0.829,0-1.5-0.672-1.5-1.501v-5.003c0-0.829,0.671-1.501,1.5-1.501S5,45.066,5,45.895v5.003
			C5,51.727,4.329,52.399,3.5,52.399z"/>
		<path id="path-8_21_" d="M55.691,37.889H9.309C6.933,37.889,5,35.954,5,33.577v-0.381c0-2.378,1.933-4.313,4.309-4.313h46.382
			c2.376,0,4.309,1.935,4.309,4.313v0.381C60,35.954,58.067,37.889,55.691,37.889z M9.309,31.885C8.587,31.885,8,32.473,8,33.196
			v0.381c0,0.722,0.587,1.31,1.309,1.31h46.382c0.722,0,1.309-0.588,1.309-1.31v-0.381c0-0.723-0.587-1.311-1.309-1.311H9.309z"/>
	</g>
</g>
<g>
</g>
<g>
</g>
<g>
</g>
<g>
</g>
<g>
</g>
<g>
</g>
<g>
</g>
<g>
</g>
<g>
</g>
<g>
</g>
<g>
</g>
<g>
</g>
<g>
</g>
<g>
</g>
<g>
</g>
</svg>
